# This file uses centimeters as units for non-parametric coordinates.

mtllib BackScreen.mtl
g default
v -5.406439 10.999177 -35.731430
v 51.661972 10.999177 -35.731430
v -5.406439 10.999177 39.895020
v 51.661972 10.999177 39.895027
v -5.406439 -11.200000 39.895020
v 51.661972 -11.200000 39.895020
v -5.406439 -11.200000 -35.731430
v 51.661972 -11.200000 -35.731430
vt 0.991148 0.001905
vt 0.991148 0.542579
vt 0.832441 0.542579
vt 0.832441 0.001905
vt 0.001992 0.001905
vt 0.409989 0.001905
vt 0.409989 0.542579
vt 0.001992 0.542579
vt 0.417314 0.001905
vt 0.825311 0.001905
vt 0.825311 0.542579
vt 0.417314 0.542579
vt 0.998008 0.546570
vt 0.998008 0.954567
vt 0.839300 0.954567
vt 0.839300 0.546570
vn 0.000000 -1.000000 0.000000
vn 0.000000 -1.000000 0.000000
vn 0.000000 -1.000000 0.000000
vn 0.000000 -1.000000 0.000000
vn 0.000000 1.000000 0.000000
vn 0.000000 1.000000 0.000000
vn 0.000000 1.000000 0.000000
vn 0.000000 1.000000 0.000000
vn 1.000000 0.000000 0.000000
vn 1.000000 0.000000 0.000000
vn 1.000000 0.000000 0.000000
vn 1.000000 0.000000 0.000000
vn 0.000000 0.000000 1.000000
vn 0.000000 0.000000 1.000000
vn 0.000000 0.000000 1.000000
vn 0.000000 0.000000 1.000000
s 1
g Backscreen_Obj
usemtl lambert2SG
f 1/5/1 2/6/2 3/8/3
f 3/8/3 2/6/2 4/7/4
s 2
f 5/9/5 6/10/6 7/12/7
f 7/12/7 6/10/6 8/11/8
s 3
f 1/1/9 3/2/10 7/4/11
f 7/4/11 3/2/10 5/3/12
s 4
f 2/13/13 1/14/14 8/16/15
f 8/16/15 1/14/14 7/15/16
